<svg viewBox="0 0 1272 229" fill="none" xmlns="http://www.w3.org/2000/svg">
<path d="M1263.3 50.4924L1252.82 38.3537L1268.74 39.4635L1269.47 28.8312L1253.55 27.7221L1265.58 17.159L1258.65 9.12412L1246.61 19.6872L1247.71 3.63097L1237.16 2.90197L1236.07 18.9582L1225.59 6.81947L1217.62 13.8079L1228.1 25.9467L1212.17 24.8376L1211.45 35.4594L1227.38 36.5782L1215.34 47.1413L1222.27 55.1762L1234.31 44.6034L1233.21 60.6596L1243.75 61.3991L1244.86 45.3421L1255.34 57.4809L1263.3 50.4924Z" fill="white"/>
<path d="M1136.02 235.591C1091.97 235.591 1061.14 188.436 1061.14 140.764C1061.14 91.7955 1092.49 43.3455 1137.31 43.3455C1177.73 43.3455 1211.93 84.5409 1211.93 139.986C1211.93 192.841 1178.25 235.591 1136.02 235.591ZM1136.02 229.632C1167.63 229.632 1189.39 201.391 1189.39 141.541C1189.39 75.9909 1165.3 49.0455 1136.02 49.0455C1107.26 49.0455 1083.94 75.2136 1083.94 139.986C1083.94 202.427 1105.45 229.632 1136.02 229.632Z" fill="white"/>
<path d="M1069.52 232.223V233.518C1065.11 233.259 1054.75 233 1047.49 233C1039.98 233 1031.69 233.259 1027.02 233.518V232.223C1030.91 231.705 1032.47 230.409 1032.47 228.336C1032.47 223.673 1025.99 212.791 1016.66 197.505L981.943 141.282V197.505C981.943 229.114 982.979 230.409 992.306 232.223V233.518C987.902 233.259 979.611 233 972.356 233C964.843 233 957.07 233.259 952.406 233.518V232.223C961.734 230.409 962.77 229.114 962.77 196.986V81.1727C962.77 49.0454 961.734 47.75 952.406 45.9363V44.6409C957.07 44.9 964.584 45.1591 972.356 45.1591C979.611 45.1591 987.902 44.9 992.306 44.6409V45.9363C982.979 47.75 981.943 49.0454 981.943 80.6545V135.841C1013.81 94.1272 1033.24 58.3727 1033.24 51.1182C1033.24 48.0091 1031.43 46.4545 1026.51 45.9363V44.6409C1032.21 45.1591 1040.76 45.1591 1048.27 45.1591C1055.01 45.1591 1061.48 44.9 1065.37 44.6409V45.9363C1051.12 49.0454 1036.87 67.9591 996.452 130.141L1040.24 198.023C1054.23 219.786 1060.19 231.964 1069.52 232.223Z" fill="white"/>
<path d="M916.695 163.045V108.895C916.695 50.8591 915.917 51.6363 901.149 46.1954V44.9C905.554 45.1591 912.29 45.4181 920.063 45.4181C927.058 45.4181 932.499 45.1591 936.904 44.9V46.1954C923.949 51.1182 923.69 51.6363 923.69 113.041V162.009C923.69 198.541 918.249 215.382 907.108 226.782C898.299 235.591 886.64 237.145 874.722 237.145C851.144 237.145 837.154 231.186 828.863 219.527C820.313 207.35 817.981 189.214 817.981 165.895V85.5772C817.981 49.3045 817.463 48.0091 807.617 45.9363V44.6409C812.281 44.9 819.794 45.1591 827.567 45.1591C834.822 45.1591 844.149 44.9 848.554 44.6409V45.9363C838.19 47.75 837.154 49.5636 837.154 85.0591V163.045C837.154 183.255 838.449 198.541 842.335 208.645C848.294 224.45 859.176 228.855 875.499 228.855C886.381 228.855 895.449 227.041 901.926 221.082C913.585 209.941 916.695 189.214 916.695 163.045Z" fill="white"/>
<path d="M714.113 189.991H715.668C715.668 189.991 715.409 192.841 715.409 195.432C715.409 214.086 728.881 229.114 748.572 229.114C763.859 229.114 776.295 217.973 776.295 194.136C776.295 142.318 712.818 143.614 712.818 87.1318C712.818 59.15 729.918 40.7545 753.236 40.7545C766.968 40.7545 774.74 44.9 781.995 44.9C783.549 44.9 785.104 44.9 786.399 44.6409C785.881 50.6 785.881 54.7454 785.881 61.7409C785.881 65.6273 785.881 72.1045 786.14 75.9909H784.586C780.699 55.7818 769.299 46.1954 753.495 46.1954C740.281 46.1954 728.622 55.0045 728.622 75.4727C728.622 125.218 792.099 123.923 792.099 182.995C792.099 215.382 774.222 235.591 747.277 235.591C733.545 235.591 727.068 230.668 717.222 230.668C715.409 230.668 714.113 230.668 712.299 230.927C712.559 229.632 712.559 226.523 712.559 224.191C712.559 215.641 711.781 210.718 711.781 203.982C711.781 198.541 712.299 193.618 714.113 189.991Z" fill="white"/>
<path d="M639.595 232.223V233.518C635.191 233.259 626.9 233 619.645 233C611.873 233 604.359 233.259 599.695 233.518V232.223C607.986 230.668 610.059 229.373 610.059 208.645V69.5136C610.059 48.7863 607.986 47.4909 599.695 45.9363V44.6409C604.359 44.9 611.873 45.1591 619.645 45.1591C626.9 45.1591 635.191 44.9 639.595 44.6409V45.9363C631.304 47.4909 629.232 48.7863 629.232 69.5136V208.645C629.232 229.373 631.304 230.668 639.595 232.223Z" fill="white"/>
<path d="M580.234 199.577H581.789C581.53 218.75 580.752 222.377 580.752 233.777C573.239 233.259 559.507 233 534.375 233H514.425C505.098 233 495.252 233.259 492.143 233.518V232.223C503.284 229.632 503.543 224.709 503.543 196.986V81.1727C503.543 49.0454 502.248 48.2681 491.625 45.9363V44.6409C495.77 44.9 504.839 45.1591 517.534 45.1591C547.07 45.1591 568.834 45.1591 579.975 44.6409C579.975 46.1954 580.234 51.3772 580.234 55.5227C580.234 61.2227 579.975 71.3272 579.457 76.7681H577.902C574.534 53.7091 566.761 52.9318 539.039 52.9318C529.452 52.9318 525.566 53.45 522.716 54.4863V131.695H537.484C557.434 131.695 561.58 128.068 564.948 111.745H566.502C566.243 119.777 565.984 125.218 565.984 135.841C565.984 149.573 566.243 153.459 566.502 162.268H564.948C561.32 139.986 554.325 139.468 522.716 139.468V223.673C525.048 224.709 531.007 225.227 539.039 225.227C567.28 225.227 574.793 224.968 580.234 199.577Z" fill="white"/>
<path d="M424.787 232.223V233.518C420.382 233.259 412.091 233 404.837 233C397.064 233 389.291 233.259 384.887 233.518V232.223C393.178 230.668 395.25 229.373 395.25 208.645V69.5136C395.25 48.7863 392.4 47.4909 384.109 45.9363V44.6409C388.773 44.9 396.805 45.1591 403.023 45.1591C414.423 45.1591 420.9 44.6409 428.155 44.6409C464.168 44.6409 479.973 67.1818 479.973 95.6818C479.973 121.591 464.428 147.5 437.223 147.5C430.228 147.5 423.75 145.686 419.346 141.541L420.382 139.468C424.268 142.059 429.45 143.095 433.078 143.095C450.955 143.095 458.987 124.441 458.987 100.086C458.987 70.0318 447.587 50.6 427.378 50.6C422.973 50.6 418.309 51.3772 414.423 53.1909V208.645C414.423 229.373 416.496 230.668 424.787 232.223Z" fill="white"/>
<path d="M372.681 232.223V233.518C368.536 233.259 360.763 233 353.768 233C345.995 233 337.445 233.259 332.781 233.518V232.223C339.259 231.186 341.85 229.373 341.85 223.155C341.85 220.823 341.331 215.123 340.554 209.682L325.268 94.1273L279.668 230.927H277.854L230.44 89.2045L216.709 198.023C215.672 206.314 215.154 211.236 215.154 216.159C215.154 225.486 218.004 230.15 226.036 232.223V233.518C221.372 233.259 213.081 233 205.568 233C198.572 233 196.24 233.259 191.836 233.518V232.223C202.2 228.595 205.568 219.786 209.195 195.173L231.218 40.7545H233.55L285.109 193.618L334.854 40.7545H337.186L360.504 212.791C362.318 226.005 364.65 229.632 372.681 232.223Z" fill="white"/>
<path d="M171.296 163.045V108.895C171.296 50.8591 170.519 51.6363 155.751 46.1954V44.9C160.155 45.1591 166.891 45.4181 174.664 45.4181C181.66 45.4181 187.101 45.1591 191.505 44.9V46.1954C178.551 51.1182 178.291 51.6363 178.291 113.041V162.009C178.291 198.541 172.851 215.382 161.71 226.782C152.901 235.591 141.241 237.145 129.323 237.145C105.746 237.145 91.7551 231.186 83.4642 219.527C74.9142 207.35 72.5824 189.214 72.5824 165.895V85.5772C72.5824 49.3045 72.0642 48.0091 62.2188 45.9363V44.6409C66.8824 44.9 74.396 45.1591 82.1687 45.1591C89.4233 45.1591 98.7506 44.9 103.155 44.6409V45.9363C92.7915 47.75 91.7551 49.5636 91.7551 85.0591V163.045C91.7551 183.255 93.0506 198.541 96.9369 208.645C102.896 224.45 113.778 228.855 130.101 228.855C140.982 228.855 150.051 227.041 156.528 221.082C168.187 209.941 171.296 189.214 171.296 163.045Z" fill="white"/>
<path d="M0.955682 284.559L0.4375 283.264C13.6511 279.895 15.2057 274.195 15.2057 250.877V69.5136C15.2057 48.7863 11.3193 47.4909 3.02841 45.9363V44.6409C7.69205 44.9 17.2784 45.1591 24.792 45.1591C32.0466 45.1591 41.633 44.9 46.0375 44.6409V45.9363C37.7466 48.0091 34.3784 48.7863 34.3784 69.5136V228.336C34.3784 259.427 27.9011 280.155 0.955682 284.559Z" fill="white"/>
</svg>