<svg width="40" height="15" viewBox="0 0 40 15" fill="none" xmlns="http://www.w3.org/2000/svg">
<path d="M38.418 12.7511C38.418 12.1999 38.9213 11.5527 39.4965 11.5527C39.8321 11.5527 39.9759 11.7684 39.9759 12.104C39.9759 12.5833 39.5684 13.3024 38.9213 13.3024C38.5857 13.3024 38.418 13.0627 38.418 12.7511Z" fill="#424446"/>
<path d="M33.1883 11.6234C33.1883 11.192 32.7569 10.9523 32.3974 10.7606C31.942 10.5209 31.4866 10.1854 31.4866 9.61017C31.4866 8.31592 33.3801 7.18945 34.4586 7.18945C34.914 7.18945 35.4413 7.57293 35.4413 8.07625C35.4413 8.6275 35.1057 9.49033 34.5784 9.49033C34.2429 9.49033 34.0512 9.32256 34.0512 8.98701C34.0512 8.74734 34.3148 8.5556 34.3148 8.36386C34.3148 8.26799 34.2429 8.19609 34.0991 8.19609C33.7875 8.19609 32.709 8.86717 32.709 9.46636C32.709 9.6581 32.9487 9.84984 33.2363 9.99365C33.7396 10.2573 34.4346 10.5928 34.4346 11.5036C34.4346 12.3425 33.6916 13.2532 32.2776 13.2532C31.3668 13.2532 30.7437 12.654 30.7437 12.0548C30.7437 11.6953 30.9833 11.4317 31.3189 11.4317C31.5825 11.4317 31.8222 11.5515 31.8222 11.8871C31.8222 12.2226 32.0379 12.4144 32.4214 12.4144C32.8768 12.4144 33.1883 12.0309 33.1883 11.6234Z" fill="#424446"/>
<path d="M28.4119 9.39513C28.6995 9.03562 29.0111 8.65214 29.2747 8.65214C29.4904 8.65214 29.6582 8.77197 29.6582 9.01165C29.6582 9.27529 29.5384 9.44306 29.2508 9.80257C28.1483 11.1687 26.5664 12.9663 25.368 12.9663C24.1697 12.9663 23.954 11.8638 23.954 10.8092C23.954 10.2819 24.0978 9.5629 24.0978 8.98768C24.0978 8.86784 24.0259 8.72404 23.882 8.72404C23.211 8.72404 20.9341 11.2646 20.3828 12.0076C20.1431 12.3192 19.9274 13.3737 19.52 13.3737C19.0886 13.3737 18.7051 13.206 18.7051 12.7266C18.7051 12.1274 19.6398 9.65877 20.0952 8.24469C20.4307 7.16615 20.5985 6.80664 21.2217 6.80664C21.3894 6.80664 21.725 6.97441 21.725 7.30996C21.725 7.6455 21.6291 7.86121 21.3894 8.5323C21.2456 8.91578 20.9341 9.97035 20.8861 10.1142C21.6531 9.25132 23.3787 7.38186 24.4333 7.38186C24.9606 7.38186 25.368 7.71741 25.368 8.29262C25.368 9.01165 25.2242 9.7067 25.2242 10.5456C25.2242 11.2886 25.2722 11.9357 25.7275 11.9357C26.2788 11.9357 27.597 10.4976 28.4119 9.39513Z" fill="#424446"/>
<path d="M8.7424 7.59768C6.65723 7.59768 5.81837 8.0291 5.5787 8.31671C5.41092 8.50845 5.17125 8.70019 4.97951 8.70019C4.59603 8.70019 4.38032 8.41258 4.38032 8.05307C4.38032 7.50181 5.09935 6.71089 8.79034 6.71089C9.72507 6.71089 10.7317 6.73486 11.6185 6.78279C13.2003 5.20094 14.7103 3.64305 16.7475 1.58185C17.6583 0.647121 18.3054 0 18.8327 0C19.36 0 19.5997 0.263642 19.5997 0.74299C19.5997 1.1025 19.2641 1.48598 18.8327 2.0612C17.6583 3.61909 16.7715 5.29681 15.8368 7.19024C15.8368 7.19024 16.8194 7.35801 17.107 7.38198C17.7781 7.45388 18.1616 7.57372 18.1616 7.98116C18.1616 8.26877 18.0178 8.53242 17.7062 8.53242C17.5145 8.53242 17.0831 8.43655 16.8434 8.36464C16.5079 8.26877 16.1244 8.1729 15.4293 8.07703C14.7103 9.77872 14.1351 11.7441 14.1351 12.7986C14.1351 13.1102 14.2549 13.4457 14.2549 13.8292C14.2549 14.0449 14.0152 14.3325 13.6557 14.3325C13.2483 14.3325 12.7689 13.973 12.7689 13.23C12.7689 12.1275 13.3681 9.9465 14.207 7.93323C13.3442 7.83736 12.697 7.76546 12.1218 7.74149C9.24572 10.4498 6.05805 13.23 3.46956 13.23C1.48026 13.23 0.617432 12.1275 0.617432 11.3366C0.617432 10.8333 0.929009 10.4738 1.43233 10.4738C2.00754 10.4738 2.05548 10.8812 2.05548 11.2407C2.05548 11.7201 2.36706 12.1755 3.27782 12.1755C5.5787 12.1755 8.16718 9.85063 10.6598 7.66959C10.0846 7.62165 9.34159 7.59768 8.7424 7.59768ZM17.131 2.56452C16.2682 3.49925 14.5186 5.39268 12.9607 6.9266C13.5119 6.95056 14.0632 6.9985 14.5905 7.0704C15.1417 5.94393 16.1244 4.1224 17.131 2.56452Z" fill="#424446"/>
</svg>
