<svg width="400" height="103" viewBox="0 0 400 103" fill="none" xmlns="http://www.w3.org/2000/svg">
<g clip-path="url(#clip0_650_342)">
<path d="M20.7777 35.1411C16.1786 35.1436 11.5796 35.1611 6.98296 35.136C6.32064 35.1335 6.05273 35.2589 6.09242 35.996C6.15691 37.1769 6.1594 38.3679 6.09242 39.5463C6.04777 40.321 6.34048 40.4614 7.03505 40.4589C11.6019 40.4288 16.1712 40.4414 20.738 40.4414C20.8868 45.175 20.8025 49.9087 20.7802 54.6424C18.2847 54.6499 15.8437 55.0511 13.5442 56.0113C5.67567 59.2933 0.997225 65.2004 0.129008 73.7651C-0.679675 81.7432 2.35909 88.2394 8.72436 93.0308C12.284 95.711 16.3523 97.0624 20.8372 96.9746C24.7889 96.9872 28.738 96.9872 32.6896 97.0273C33.4189 97.0348 33.3743 96.6236 33.3743 96.1322C33.3693 92.1407 33.3668 88.1517 33.3743 84.1601C33.3817 79.2961 33.3941 74.4345 33.4065 69.5705C38.2884 69.5605 43.1703 69.5504 48.0521 69.5404C50.0515 69.7335 51.8549 70.3778 53.2044 71.9574C54.9954 74.0534 55.4468 76.4729 54.5042 79.0378C53.5566 81.6103 51.6217 83.0996 48.9129 83.4957C48.4168 83.5684 48.0521 83.591 48.0571 84.2805C48.0868 88.3046 48.0794 92.3312 48.062 96.3554C48.062 96.9145 48.2754 97.0449 48.7789 97.0173C49.8282 96.9596 50.8651 96.8468 51.902 96.6562C61.5789 94.8636 68.8918 86.191 68.9712 76.2698C69.0282 69.2044 66.2822 63.4127 60.7876 59.0501C57.084 56.1116 52.8223 54.6198 48.0695 54.6875C43.1802 54.6725 38.2909 54.6574 33.3991 54.6449C33.3892 51.9672 33.3668 49.2869 33.3718 46.6092C33.3743 44.5557 33.4115 42.4998 33.4338 40.4464C38.0031 40.4464 42.5724 40.4288 47.1417 40.4689C47.938 40.4765 48.1439 40.2182 48.0992 39.461C48.0397 38.4356 48.0893 37.4026 48.0819 36.3746C48.072 34.9956 48.2282 35.1636 46.9209 35.1586C42.4137 35.1486 37.9064 35.1486 33.3966 35.1461C33.3867 29.5048 33.3668 23.861 33.3817 18.2197C33.3817 17.5327 33.2106 17.3096 32.5036 17.3171C28.9836 17.3522 25.4636 17.3722 21.9461 17.307C20.9861 17.2895 20.7777 17.5703 20.7827 18.5005C20.8174 24.049 20.7827 29.5975 20.7727 35.1461L20.7777 35.1411ZM336.298 26.8521C332.284 26.8621 328.268 26.8872 324.254 26.8672C323.575 26.8646 323.294 26.98 323.302 27.7673C323.339 33.2556 323.336 38.7465 323.302 44.2373C323.297 44.9669 323.525 45.1048 324.192 45.0973C326.941 45.0672 329.689 45.0973 332.438 45.1048C332.423 45.2603 332.423 45.4182 332.393 45.5687C331.188 51.3604 329.977 57.1496 328.771 62.9413C327.705 68.0611 326.643 73.1809 325.564 78.2982C325.482 78.6868 325.423 78.91 325.934 79.0153C328.776 79.5944 331.612 80.2037 334.445 80.828C335.1 80.9734 335.377 80.7979 335.506 80.1134C335.923 77.9121 336.402 75.7233 336.858 73.5269C337.873 68.6503 338.88 63.7738 339.905 58.9022C340.872 54.3014 341.854 49.7056 342.832 45.1073C345.379 45.0873 347.927 45.0672 350.474 45.0472C356.621 45.1299 360.59 51.6914 357.8 57.2123C356.458 59.865 354.28 61.4069 351.333 61.7905C350.852 61.8532 350.38 61.8156 350.385 62.5928C350.417 67.5246 350.41 72.4538 350.39 77.3856C350.39 77.9873 350.621 78.1227 351.159 78.1026C352.365 78.0575 353.558 77.9171 354.746 77.7065C367.993 75.3422 377.208 62.6781 375.422 49.2894C373.718 36.5276 363.185 27.0953 350.46 26.9349C349.209 26.9148 347.962 26.8972 346.711 26.8772C346.726 26.629 346.711 26.3757 346.761 26.135C347.341 23.3319 347.934 20.5314 348.52 17.7308C349.569 12.7063 350.608 7.67924 351.668 2.65472C351.762 2.20844 351.732 1.95771 351.226 1.85491C348.326 1.26571 345.424 0.679018 342.534 0.037164C341.983 -0.0856908 341.887 0.142468 341.805 0.546134C341.638 1.36851 341.48 2.19339 341.309 3.01577C339.639 10.9637 337.97 18.9092 336.3 26.8546L336.298 26.8521ZM293.472 80.5096C293.748 80.477 294.025 80.4544 294.301 80.4118C296.407 80.0884 298.488 80.1511 300.525 80.8355C304.62 82.2095 305.496 85.8776 302.452 88.959C300.882 90.5486 298.94 91.5064 296.819 92.0479C295.998 92.256 295.908 92.5644 296.077 93.3166C296.742 96.2952 297.349 99.2888 297.96 102.28C298.066 102.804 298.208 102.99 298.816 102.842C303.588 101.673 307.763 99.4342 311.164 95.8364C314.004 92.8327 315.862 89.2975 316.048 85.0953C316.291 79.5869 313.903 75.2895 309.475 72.2232C303.854 68.3319 297.607 67.5973 291.034 68.9412C289.885 69.1744 288.734 69.4 287.586 69.6407C283.356 70.5308 279.127 71.4309 274.895 72.3084C274.223 72.4488 273.945 72.6193 274.141 73.4592C274.9 76.7362 275.575 80.0332 276.207 83.3378C276.341 84.0323 276.505 84.2053 277.192 84.0523C280.598 83.2951 284.016 82.5906 287.427 81.8585C289.446 81.4247 291.488 81.0963 293.472 80.5071V80.5096ZM255.147 30.8812C259.371 29.9937 263.593 29.0886 267.825 28.2311C268.656 28.0631 268.944 27.7798 268.74 26.8772C268.088 23.9939 267.505 21.093 266.93 18.1921C266.803 17.5578 266.55 17.3998 265.932 17.5352C261.624 18.4804 257.31 19.3981 252.996 20.3233C252.674 19.6388 252.616 18.8841 252.463 18.1595C251.262 12.433 250.081 6.70141 248.888 0.972365C248.794 0.516047 248.757 0.132439 248.022 0.297917C243.116 1.39107 238.197 2.43158 233.273 3.44701C232.585 3.58993 232.469 3.80806 232.613 4.49003C233.975 10.9136 235.294 17.3472 236.626 23.7782C229.658 25.27 222.693 26.7694 215.722 28.2386C215.03 28.384 214.73 28.537 214.921 29.3744C215.576 32.2577 216.159 35.1561 216.705 38.062C216.866 38.927 217.278 38.9847 217.987 38.8317C224.923 37.3374 231.864 35.8606 238.802 34.3789C239.353 36.9011 239.918 39.4209 240.449 41.9482C241.645 47.6522 242.825 53.3562 243.999 59.0652C244.113 59.6218 244.195 59.9026 244.932 59.7396C249.813 58.6565 254.708 57.6185 259.612 56.6407C260.614 56.4401 260.351 55.8935 260.229 55.3143C258.538 47.1683 256.838 39.0248 255.144 30.8812H255.147ZM164.304 51.062C164.016 51.4682 163.728 51.8744 163.443 52.2806C160.521 56.4601 158.633 61.0634 158.068 66.1556C157.048 75.3672 159.839 83.3904 165.983 90.1399C173.817 98.7448 183.809 102.581 195.23 102.997C195.932 103.022 196.031 102.739 196.029 102.13C196.009 97.446 196.001 92.765 196.036 88.0815C196.041 87.3519 195.795 87.2315 195.138 87.2014C190.249 86.9858 185.781 85.4965 181.968 82.3524C177.836 78.9426 175.415 74.6075 175.457 69.0891C175.496 63.9468 177.729 59.8399 181.495 56.5354C185.404 53.1054 190.058 51.556 195.168 51.2401C195.438 51.2225 195.88 51.5008 195.964 50.9342C195.991 50.7812 196.041 50.6283 196.041 50.4779C196.046 45.9197 196.034 41.3615 196.061 36.8059C196.066 36.0938 195.709 36.0913 195.195 36.0938C178.042 36.1013 160.886 36.1038 143.732 36.0838C143.025 36.0838 142.856 36.2919 142.861 36.9814C142.891 41.3515 142.896 45.7216 142.861 50.0917C142.854 50.859 143.107 51.037 143.816 51.0294C147.217 50.9994 150.616 51.0094 154.017 51.0169C157.447 51.0244 160.876 51.0445 164.306 51.0595L164.304 51.062ZM126.891 9.90065C126.708 9.8831 126.524 9.85301 126.34 9.85301C110.278 9.85301 94.214 9.85803 78.152 9.86054C77.9361 9.86054 77.7154 9.88561 77.5045 9.85552C76.7578 9.75022 76.4378 10.011 76.4974 10.8208C76.5619 11.7209 76.5123 12.6285 76.5123 13.5336C76.5123 16.9961 76.5296 20.4586 76.4974 23.9211C76.4924 24.6157 76.6934 24.909 77.3904 24.8162C77.6633 24.7811 77.9461 24.8112 78.2239 24.8112C84.7405 24.8212 91.2596 24.8338 97.7761 24.8438C97.4834 25.2826 97.1932 25.7213 96.8955 26.1551C93.4648 31.1621 91.5572 36.7056 91.5175 42.7957C91.4555 51.9972 95.0971 59.6443 101.708 65.8297C109.343 72.9728 118.556 76.2172 128.866 76.5682C129.543 76.5908 129.689 76.3827 129.684 75.7408C129.66 71.0899 129.655 66.439 129.689 61.788C129.694 61.0258 129.508 60.8177 128.734 60.7776C123.418 60.5018 118.653 58.7618 114.667 55.1087C107.441 48.4896 107.178 38.0469 114.086 31.0994C118.105 27.0577 123.069 25.1597 128.662 24.8639C129.536 24.8187 129.714 24.553 129.704 23.7331C129.662 20.0199 129.699 16.3041 129.677 12.5909C129.672 11.7009 130.084 10.5224 129.493 9.99342C128.92 9.47693 127.782 9.88561 126.894 9.89815L126.891 9.90065ZM400 38.225C399.99 36.1891 399.74 34.4641 399.315 32.7667C396.726 22.4193 386.734 13.0573 376.471 12.0443C372.567 11.6582 368.992 12.3929 365.822 14.8349C365.199 15.3138 365.162 15.5695 365.725 16.1637C375.623 26.6189 385.498 37.0967 395.361 47.587C395.914 48.1762 396.205 48.1135 396.696 47.5369C399.045 44.7689 399.945 41.5095 400.003 38.225H400ZM244.19 86.8905C245.252 86.9632 246.296 86.8203 247.328 86.6423C250.233 86.1409 252.812 85.0076 254.804 82.6984C255.305 82.1167 255.335 81.8535 254.648 81.3871C245.17 74.951 235.711 68.4849 226.247 62.0262C222.976 59.7923 219.694 57.5733 216.434 55.3193C215.869 54.9282 215.558 54.9056 215.251 55.5901C214.906 56.3573 214.544 57.1145 214.358 57.9394C213.455 61.956 214.385 65.6818 216.241 69.2145C219.235 74.9184 223.737 79.1406 229.194 82.375C233.821 85.1179 238.777 86.7977 244.187 86.888L244.19 86.8905ZM73.0096 45.5612C73.0047 41.0757 70.2586 37.207 65.92 36.1013C61.063 34.8653 57.0096 36.5802 53.4648 39.8848C53.058 40.2634 53.2515 40.489 53.5616 40.7824C58.5625 45.521 63.561 50.2597 68.5445 55.016C68.9513 55.4046 69.1597 55.3444 69.4896 54.9458C71.6924 52.2981 72.9178 49.2719 73.0121 45.5586L73.0096 45.5612Z" fill="#FEFEFE"/>
<path d="M126.891 9.90034C127.782 9.88529 128.918 9.47912 129.491 9.99561C130.081 10.5271 129.669 11.703 129.674 12.5931C129.699 16.3063 129.662 20.0221 129.702 23.7353C129.712 24.5552 129.531 24.8209 128.66 24.8661C123.066 25.1619 118.102 27.0599 114.084 31.1016C107.175 38.0491 107.438 48.4918 114.664 55.1109C118.651 58.7615 123.416 60.5015 128.732 60.7798C129.506 60.8199 129.692 61.028 129.687 61.7902C129.652 66.4412 129.657 71.0921 129.682 75.743C129.684 76.3849 129.54 76.593 128.863 76.5704C118.554 76.2194 109.341 72.975 101.705 65.8319C95.0946 59.6465 91.453 51.9994 91.5151 42.7979C91.5548 36.7103 93.4648 31.1643 96.893 26.1573C97.1907 25.7235 97.4809 25.2823 97.7737 24.846C98.312 24.2092 98.8378 23.5623 99.3935 22.9405C102.383 19.6084 105.828 16.8604 109.775 14.7744C113.985 12.5505 118.427 11.0261 123.155 10.3993C124.401 10.2338 125.643 10.0683 126.889 9.90284L126.891 9.90034Z" fill="#01BC3A"/>
<path d="M195.964 50.9367C195.88 51.5033 195.438 51.225 195.168 51.2425C190.058 51.5585 185.404 53.1079 181.495 56.5378C177.729 59.8424 175.496 63.9492 175.457 69.0916C175.415 74.61 177.836 78.9476 181.968 82.3549C185.781 85.499 190.249 86.9883 195.138 87.2039C195.795 87.234 196.043 87.3543 196.036 88.0839C196.001 92.7675 196.009 97.4485 196.029 102.132C196.031 102.741 195.932 103.025 195.23 103C183.809 102.583 173.817 98.7472 165.983 90.1424C159.839 83.3929 157.048 75.3697 158.068 66.1581C158.631 61.0659 160.518 56.4601 163.443 52.283C163.728 51.8744 164.016 51.4707 164.304 51.0645C164.606 51.0194 164.909 50.9316 165.212 50.9316C175.462 50.9316 185.712 50.9341 195.964 50.9392V50.9367Z" fill="#F74B56"/>
<path d="M236.631 23.7765C235.299 17.3454 233.977 10.9118 232.618 4.48828C232.474 3.80882 232.59 3.58818 233.278 3.44527C238.202 2.42984 243.121 1.39184 248.027 0.296175C248.762 0.133205 248.799 0.514305 248.893 0.970623C250.086 6.69967 251.267 12.4312 252.468 18.1578C252.619 18.8849 252.676 19.637 253.001 20.3215C253.023 20.5998 253.011 20.8831 253.07 21.1539C253.757 24.3983 254.457 27.6376 255.152 30.8795C256.848 39.023 258.545 47.1666 260.237 55.3126C260.358 55.8918 260.619 56.4383 259.619 56.6389C254.715 57.6167 249.821 58.6572 244.939 59.7379C244.205 59.9008 244.12 59.62 244.006 59.0634C242.833 53.3569 241.652 47.6504 240.456 41.9465C239.926 39.4192 239.36 36.8994 238.809 34.3771C238.194 30.8193 237.39 27.3017 236.634 23.7715L236.631 23.7765Z" fill="#1070DA"/>
<path d="M350.455 26.9297C363.18 27.0902 373.713 36.5224 375.417 49.2843C377.203 62.6729 367.988 75.337 354.741 77.7013C353.553 77.9119 352.362 78.0549 351.154 78.0975C350.616 78.1175 350.383 77.9821 350.385 77.3804C350.405 72.4487 350.412 67.5194 350.38 62.5877C350.375 61.8104 350.847 61.848 351.328 61.7854C354.277 61.4018 356.455 59.8598 357.795 57.2071C360.585 51.6862 356.616 45.1272 350.469 45.042C350.442 44.6709 350.393 44.2999 350.393 43.9313C350.388 38.8541 350.388 33.7745 350.393 28.6973C350.393 28.1081 350.432 27.5189 350.455 26.9297Z" fill="#FE9235"/>
<path d="M195.964 50.9363C185.714 50.9313 175.464 50.9263 165.212 50.9288C164.909 50.9288 164.607 51.0166 164.304 51.0617C160.873 51.0467 157.445 51.0266 154.014 51.0191C150.613 51.0116 147.215 51.0015 143.814 51.0316C143.104 51.0391 142.851 50.8586 142.859 50.0939C142.894 45.7238 142.891 41.3537 142.859 36.9835C142.854 36.2965 143.023 36.0859 143.73 36.0859C160.883 36.106 178.039 36.1035 195.193 36.096C195.706 36.096 196.063 36.096 196.058 36.808C196.031 41.3662 196.043 45.9218 196.038 50.48C196.038 50.633 195.986 50.7859 195.962 50.9363H195.964Z" fill="#FECC3D"/>
<path d="M20.7801 54.643C20.8 49.9093 20.8868 45.1756 20.7355 40.4395C24.9674 40.4395 29.1994 40.4395 33.4313 40.4395C33.409 42.4929 33.3742 44.5488 33.3693 46.6023C33.3643 49.28 33.3866 51.9602 33.3966 54.638C33.3792 56.5334 33.3445 58.4314 33.3469 60.3269C33.3519 63.4058 33.3792 66.4847 33.3966 69.5636C33.3866 74.4276 33.3718 79.2892 33.3643 84.1532C33.3594 88.1447 33.3618 92.1338 33.3643 96.1253C33.3643 96.6167 33.409 97.0279 32.6797 97.0204C28.7305 96.9803 24.7789 96.9803 20.8273 96.9677C20.8273 83.2631 20.8248 69.5586 20.8198 55.8515C20.8198 55.4478 20.7876 55.0416 20.7702 54.638L20.7801 54.643Z" fill="#FDCC3D"/>
<path d="M20.7801 54.6426C20.7975 55.0462 20.8273 55.4524 20.8297 55.8561C20.8347 69.5607 20.8347 83.2678 20.8372 96.9723C16.3522 97.0626 12.284 95.7087 8.72432 93.0285C2.35904 88.2396 -0.682196 81.7408 0.128966 73.7653C0.997183 65.2006 5.67563 59.2935 13.5442 56.0115C15.8462 55.0513 18.2846 54.6501 20.7801 54.6426Z" fill="#01BB39"/>
<path d="M48.0695 54.6858C52.8199 54.6181 57.0841 56.1099 60.7876 59.0484C66.2822 63.411 69.0282 69.2027 68.9712 76.2681C68.8918 86.1868 61.5789 94.8618 51.902 96.6545C50.8651 96.8476 49.8282 96.9579 48.7789 97.0156C48.2729 97.0431 48.0596 96.9128 48.062 96.3536C48.0794 92.3295 48.0868 88.3029 48.0571 84.2788C48.0521 83.5893 48.4168 83.5667 48.9129 83.494C51.6193 83.0979 53.5566 81.6086 54.5042 79.0361C55.4493 76.4712 54.9954 74.0517 53.2044 71.9557C51.8549 70.3761 50.0515 69.7318 48.0521 69.5387C48.0596 64.5869 48.067 59.6376 48.0744 54.6858H48.0695Z" fill="#F74B56"/>
<path d="M400 38.2248C399.943 41.5093 399.042 44.7687 396.693 47.5367C396.205 48.1134 395.912 48.1761 395.359 47.5869C385.498 37.0966 375.62 26.6188 365.723 16.1636C365.16 15.5694 365.197 15.3137 365.82 14.8348C368.99 12.3927 372.564 11.6581 376.469 12.0442C386.734 13.0597 396.726 22.4217 399.313 32.7666C399.737 34.464 399.99 36.189 399.998 38.2248H400Z" fill="#01BC3A"/>
<path d="M244.19 86.8909C238.777 86.8006 233.823 85.1208 229.197 82.3779C223.739 79.1435 219.237 74.9213 216.243 69.2174C214.388 65.6822 213.457 61.9589 214.36 57.9423C214.546 57.1174 214.906 56.3602 215.253 55.593C215.561 54.9085 215.873 54.9311 216.437 55.3222C219.696 57.5762 222.978 59.7951 226.25 62.0291C235.713 68.4878 245.17 74.9564 254.651 81.39C255.335 81.8564 255.308 82.1196 254.807 82.7013C252.817 85.0105 250.237 86.1437 247.33 86.6452C246.296 86.8232 245.251 86.9661 244.192 86.8934L244.19 86.8909Z" fill="#01BC3A"/>
<path d="M291.034 68.9415C297.607 67.5976 303.854 68.3322 309.475 72.2234C313.903 75.2898 316.292 79.5872 316.048 85.0956C315.862 89.2977 314.004 92.833 311.164 95.8366C307.763 99.4345 303.588 101.673 298.816 102.842C298.208 102.99 298.066 102.804 297.96 102.28C297.35 99.2891 296.742 96.2955 296.077 93.3169C295.908 92.5622 295.998 92.2563 296.819 92.0482C298.94 91.5066 300.884 90.5489 302.452 88.9593C305.496 85.8779 304.62 82.2098 300.525 80.8358C298.488 80.1538 296.407 80.0887 294.301 80.4121C294.025 80.4547 293.75 80.4773 293.472 80.5099C292.659 76.6537 291.845 72.7976 291.031 68.9415H291.034Z" fill="#FECD3D"/>
<path d="M350.454 26.9298C350.432 27.519 350.392 28.1082 350.392 28.6974C350.388 33.7746 350.388 38.8543 350.392 43.9315C350.392 44.3025 350.442 44.6736 350.469 45.0422C347.922 45.0622 345.374 45.0823 342.827 45.1023C339.364 45.1023 335.898 45.1023 332.435 45.1023C329.687 45.0948 326.938 45.0647 324.19 45.0948C323.522 45.1023 323.294 44.9619 323.299 44.2348C323.331 38.7465 323.334 33.2556 323.299 27.7648C323.294 26.9775 323.572 26.8621 324.252 26.8647C328.265 26.8822 332.281 26.8596 336.295 26.8496C339.765 26.8571 343.233 26.8621 346.704 26.8697C347.954 26.8897 349.202 26.9073 350.452 26.9273L350.454 26.9298Z" fill="#1070DA"/>
<path d="M126.891 9.90132C125.646 10.0668 124.403 10.2323 123.158 10.3978C118.432 11.0246 113.989 12.549 109.777 14.7729C105.831 16.8589 102.385 19.6069 99.396 22.939C98.8403 23.5583 98.3144 24.2076 97.7761 24.8445C91.2595 24.8344 84.7405 24.8219 78.2239 24.8119C77.946 24.8119 77.6633 24.7818 77.3904 24.8169C76.6909 24.9097 76.4899 24.6163 76.4974 23.9218C76.5271 20.4593 76.5122 16.9968 76.5122 13.5343C76.5122 12.6292 76.5619 11.7216 76.4974 10.8215C76.4403 10.0116 76.7603 9.75088 77.5045 9.85619C77.7178 9.88627 77.9361 9.8612 78.1519 9.8612C94.2139 9.85869 110.278 9.85368 126.34 9.85368C126.524 9.85368 126.708 9.88377 126.891 9.90132Z" fill="#36CFB9"/>
<path d="M332.438 45.106C335.901 45.106 339.366 45.106 342.829 45.106C341.852 49.7043 340.869 54.3001 339.902 58.9009C338.878 63.7749 337.87 68.6515 336.856 73.5256C336.399 75.7194 335.921 77.9083 335.504 80.1121C335.375 80.7966 335.1 80.9721 334.442 80.8267C331.609 80.1999 328.771 79.5931 325.931 79.014C325.42 78.9087 325.48 78.688 325.562 78.2969C326.641 73.1796 327.702 68.0598 328.769 62.94C329.977 57.1483 331.185 51.3591 332.391 45.5674C332.423 45.4169 332.423 45.259 332.435 45.1035L332.438 45.106Z" fill="#36CFBA"/>
<path d="M346.709 26.8727C343.238 26.8652 339.768 26.8602 336.3 26.8527C337.97 18.9047 339.642 10.9593 341.309 3.01381C341.482 2.19144 341.641 1.36656 341.805 0.544181C341.887 0.140515 341.981 -0.087644 342.534 0.0352109C345.424 0.679572 348.324 1.26376 351.226 1.85296C351.73 1.95576 351.762 2.20648 351.668 2.65277C350.608 7.67478 349.569 12.7018 348.52 17.7288C347.934 20.5319 347.341 23.33 346.761 26.1331C346.711 26.3738 346.726 26.627 346.711 26.8752L346.709 26.8727Z" fill="#36CFBA"/>
<path d="M236.631 23.7754C237.385 27.3031 238.192 30.8207 238.807 34.381C231.868 35.8628 224.928 37.3396 217.992 38.8339C217.28 38.9868 216.871 38.9267 216.709 38.0642C216.164 35.1583 215.581 32.2574 214.926 29.3766C214.735 28.5366 215.037 28.3862 215.727 28.2408C222.698 26.769 229.666 25.2722 236.631 23.7804V23.7754Z" fill="#FECD3D"/>
<path d="M73.0096 45.5623C72.9154 49.2755 71.6899 52.2992 69.4872 54.9494C69.1572 55.348 68.9464 55.4057 68.542 55.0196C63.5585 50.2633 58.56 45.5221 53.5591 40.786C53.249 40.4926 53.0555 40.267 53.4623 39.8884C57.0096 36.5838 61.063 34.8689 65.9175 36.1049C70.2561 37.2106 73.0022 41.0768 73.0072 45.5648L73.0096 45.5623Z" fill="#1171DA"/>
<path d="M20.7776 35.1406C20.7876 29.5921 20.8223 24.0435 20.7876 18.495C20.7826 17.5623 20.9885 17.284 21.951 17.3016C25.4685 17.3667 28.9885 17.3467 32.5085 17.3116C33.2155 17.3041 33.3866 17.5272 33.3866 18.2142C33.3718 23.8555 33.3916 29.4993 33.4015 35.1406C29.1944 35.1406 24.9873 35.1406 20.7801 35.1406H20.7776Z" fill="#FECD3D"/>
<path d="M20.7777 35.1418C24.9848 35.1418 29.192 35.1418 33.3991 35.1418C37.9064 35.1443 42.4137 35.1443 46.9234 35.1543C48.2332 35.1568 48.0744 34.9888 48.0844 36.3703C48.0918 37.3983 48.0397 38.4313 48.1017 39.4567C48.1464 40.2139 47.9405 40.4722 47.1442 40.4646C42.5749 40.4245 38.0056 40.4446 33.4363 40.4421C29.2044 40.4421 24.9724 40.4421 20.738 40.4421C16.1712 40.4421 11.6019 40.4295 7.03506 40.4596C6.34049 40.4646 6.04778 40.3217 6.09243 39.547C6.1594 38.3661 6.1594 37.1777 6.09243 35.9967C6.05026 35.2596 6.32064 35.1342 6.98297 35.1368C11.582 35.1618 16.1811 35.1443 20.7777 35.1418Z" fill="#FE9134"/>
<path d="M48.0695 54.6852C48.062 59.637 48.0546 64.5863 48.0471 69.5381C43.1653 69.5481 38.2834 69.5582 33.4015 69.5682C33.3842 66.4893 33.3544 63.4104 33.3519 60.3315C33.3495 58.436 33.3842 56.5381 33.4015 54.6426C38.2908 54.6576 43.1801 54.6727 48.0719 54.6852H48.0695Z" fill="#36CFBA"/>
<path d="M291.034 68.9414C291.847 72.7975 292.661 76.6537 293.475 80.5098C291.49 81.0965 289.449 81.425 287.429 81.8612C284.019 82.5933 280.6 83.3004 277.194 84.0551C276.505 84.208 276.341 84.035 276.21 83.3405C275.577 80.0359 274.902 76.7389 274.143 73.462C273.95 72.622 274.225 72.4515 274.897 72.3111C279.129 71.4311 283.359 70.531 287.588 69.6434C288.737 69.4027 289.888 69.1771 291.036 68.9439L291.034 68.9414Z" fill="#36CFBA"/>
<path d="M255.147 30.8811C254.452 27.6392 253.753 24.3974 253.065 21.1555C253.008 20.8847 253.018 20.6014 252.996 20.3231C257.31 19.3979 261.624 18.4803 265.932 17.5351C266.548 17.3997 266.803 17.5576 266.93 18.192C267.505 21.0928 268.088 23.9937 268.74 26.877C268.944 27.7797 268.656 28.063 267.825 28.231C263.593 29.0884 259.371 29.9935 255.147 30.8811Z" fill="#FECD3D"/>
</g>
<defs>
<clipPath id="clip0_650_342">
<rect width="400" height="103" fill="white"/>
</clipPath>
</defs>
</svg>
